[h264 @ 0x5608507e67c0] Reinit context to 848x480, pix_fmt: yuv420p
Input #0, mov,mp4,m4a,3gp,3g2,mj2, from '/var/www/html/project/media/video/original/WhatsApp_Video_2025-02-27_at_08.16.54.mp4':
  Metadata:
    major_brand     : mp42
    minor_version   : 0
    compatible_brands: mp42isom
  Duration: 00:01:44.70, start: 0.000000, bitrate: 1257 kb/s
    Stream #0:0(und): Video: h264 (Baseline), 1 reference frame (avc1 / 0x31637661), yuv420p(tv, bt709, left), 848x480, 1192 kb/s, 25 fps, 25 tbr, 600 tbn, 1200 tbc (default)
    Stream #0:1(und): Audio: aac (LC) (mp4a / 0x6134706D), 44100 Hz, stereo, fltp, 63 kb/s (default)
[h264 @ 0x5608508093c0] Reinit context to 1280x720, pix_fmt: yuv420p
Input #1, mov,mp4,m4a,3gp,3g2,mj2, from '/var/www/html/project/static/images/templates/Codino.mp4':
  Metadata:
    major_brand     : mp42
    minor_version   : 1
    compatible_brands: isommp41mp42
    creation_time   : 2021-07-11T07:02:58.000000Z
  Duration: 00:00:02.00, start: 0.000000, bitrate: 1007 kb/s
    Stream #1:0(ita): Audio: aac (LC) (mp4a / 0x6134706D), 44100 Hz, stereo, fltp, 102 kb/s (default)
    Metadata:
      creation_time   : 2021-07-11T07:02:58.000000Z
      handler_name    : Core Media Audio
    Stream #1:1(und): Video: h264 (High), 1 reference frame (avc1 / 0x31637661), yuv420p(tv, bt709, progressive, left), 1280x720 [SAR 1:1 DAR 16:9], 813 kb/s, 25 fps, 25 tbr, 25k tbn, 50k tbc (default)
    Metadata:
      creation_time   : 2021-07-11T07:02:58.000000Z
      handler_name    : Core Media Video
[Parsed_scale_0 @ 0x56085080af80] w:1280 h:720 flags:'bilinear' interl:0
[Parsed_scale_2 @ 0x56085083eb80] w:1280 h:720 flags:'bilinear' interl:0
Stream mapping:
  Stream #0:0 (h264) -> scale
  Stream #0:1 (aac) -> concat:in0:a0
  Stream #1:0 (aac) -> concat:in1:a0
  Stream #1:1 (h264) -> scale
  concat:out:v0 -> Stream #0:0 (libx264)
  concat:out:a0 -> Stream #0:1 (aac)
Press [q] to stop, [?] for help
[h264 @ 0x56085098da00] Reinit context to 848x480, pix_fmt: yuv420p
[h264 @ 0x560850c76940] Reinit context to 1280x720, pix_fmt: yuv420p
[Parsed_scale_0 @ 0x5608517cb480] w:1280 h:720 flags:'bilinear' interl:0
[Parsed_scale_2 @ 0x5608517d3640] w:1280 h:720 flags:'bilinear' interl:0
[graph 0 input from stream 0:0 @ 0x5608517d6a80] w:848 h:480 pixfmt:yuv420p tb:1/600 fr:25/1 sar:0/1 sws_param:flags=2
[graph 0 input from stream 1:1 @ 0x5608517d7ac0] w:1280 h:720 pixfmt:yuv420p tb:1/25000 fr:25/1 sar:1/1 sws_param:flags=2
[graph_0_in_0_1 @ 0x5608517d8a80] tb:1/44100 samplefmt:fltp samplerate:44100 chlayout:0x3
[graph_0_in_1_0 @ 0x5608517d9bc0] tb:1/44100 samplefmt:fltp samplerate:44100 chlayout:0x3
[Parsed_scale_0 @ 0x5608517cb480] w:848 h:480 fmt:yuv420p sar:0/1 -> w:1280 h:720 fmt:yuv420p sar:0/1 flags:0x2
[Parsed_setsar_1 @ 0x5608517d3280] w:1280 h:720 sar:0/1 dar:16/9 -> sar:1/1 dar:16/9
[Parsed_scale_2 @ 0x5608517d3640] w:1280 h:720 fmt:yuv420p sar:1/1 -> w:1280 h:720 fmt:yuv420p sar:1/1 flags:0x2
[Parsed_setsar_3 @ 0x5608517d3bc0] w:1280 h:720 sar:1/1 dar:16/9 -> sar:1/1 dar:16/9
[libx264 @ 0x560850854b80] using SAR=1/1
[libx264 @ 0x560850854b80] using cpu capabilities: MMX2 SSE2Fast SSSE3 SSE4.2 AVX FMA3 BMI2 AVX2
[libx264 @ 0x560850854b80] profile High, level 3.1
[libx264 @ 0x560850854b80] 264 - core 155 r2917 0a84d98 - H.264/MPEG-4 AVC codec - Copyleft 2003-2018 - http://www.videolan.org/x264.html - options: cabac=1 ref=1 deblock=1:0:0 analyse=0x3:0x113 me=hex subme=2 psy=1 psy_rd=1.00:0.00 mixed_ref=0 me_range=16 chroma_me=1 trellis=0 8x8dct=1 cqm=0 deadzone=21,11 fast_pskip=1 chroma_qp_offset=0 threads=22 lookahead_threads=5 sliced_threads=0 nr=0 decimate=1 interlaced=0 bluray_compat=0 constrained_intra=0 bframes=3 b_pyramid=2 b_adapt=1 b_bias=0 direct=1 weightb=1 open_gop=0 weightp=1 keyint=250 keyint_min=25 scenecut=40 intra_refresh=0 rc_lookahead=10 rc=crf mbtree=1 crf=18.0 qcomp=0.60 qpmin=0 qpmax=69 qpstep=4 ip_ratio=1.40 aq=1:1.00
Output #0, mp4, to '/var/www/html/project/media/video/watermarks/WhatsApp_Video_2025-02-27_at_08.16.54.mp4':
  Metadata:
    major_brand     : mp42
    minor_version   : 0
    compatible_brands: mp42isom
    encoder         : Lavf58.29.100
    Stream #0:0: Video: h264 (libx264), 1 reference frame (avc1 / 0x31637661), yuv420p(progressive), 1280x720 [SAR 1:1 DAR 16:9], q=-1--1, 25 fps, 12800 tbn, 25 tbc (default)
    Metadata:
      encoder         : Lavc58.54.100 libx264
    Side data:
      cpb: bitrate max/min/avg: 0/0/0 buffer size: 0 vbv_delay: -1
    Stream #0:1: Audio: aac (LC) (mp4a / 0x6134706D), 44100 Hz, stereo, fltp, delay 1024, 128 kb/s (default)
    Metadata:
      encoder         : Lavc58.54.100 aac
[Parsed_concat_4 @ 0x5608517d4ac0] EOF on in0:v0, 1 streams left in segment.
[Parsed_concat_4 @ 0x5608517d4ac0] EOF on in0:a0, 0 streams left in segment.
[Parsed_concat_4 @ 0x5608517d4ac0] Segment finished at pts=104698776
[Parsed_concat_4 @ 0x5608517d4ac0] EOF on in1:a0, 1 streams left in segment.
[Parsed_concat_4 @ 0x5608517d4ac0] EOF on in1:v0, 0 streams left in segment.
[Parsed_concat_4 @ 0x5608517d4ac0] Segment finished at pts=106717461
No more output streams to write to, finishing.
frame= 2666 fps= 78 q=-1.0 Lsize=   47599kB time=00:01:46.71 bitrate=3653.8kbits/s speed=3.14x    
[AVIOContext @ 0x5608507e4c00] Statistics: 0 seeks, 67 writeouts
video:45865kB audio:1647kB subtitle:0kB other streams:0kB global headers:0kB muxing overhead: 0.183426%
Input file #0 (/var/www/html/project/media/video/original/WhatsApp_Video_2025-02-27_at_08.16.54.mp4):
  Input stream #0:0 (video): 2616 packets read (15600873 bytes); 2616 frames decoded; 
  Input stream #0:1 (audio): 4509 packets read (825348 bytes); 4509 frames decoded (4617216 samples); 
  Total: 7125 packets (16426221 bytes) demuxed
Input file #1 (/var/www/html/project/static/images/templates/Codino.mp4):
  Input stream #1:0 (audio): 89 packets read (26579 bytes); 87 frames decoded (89024 samples); 
  Input stream #1:1 (video): 50 packets read (203365 bytes); 50 frames decoded; 
  Total: 139 packets (229944 bytes) demuxed
Output file #0 (/var/www/html/project/media/video/watermarks/WhatsApp_Video_2025-02-27_at_08.16.54.mp4):
  Output stream #0:0 (video): 2666 frames encoded; 2666 packets muxed (46965452 bytes); 
  Output stream #0:1 (audio): 4596 frames encoded (4706240 samples); 4597 packets muxed (1686761 bytes); 
  Total: 7263 packets (48652213 bytes) muxed
[AVIOContext @ 0x5608509c6dc0] Statistics: 2 seeks, 189 writeouts
[libx264 @ 0x560850854b80] frame I:48    Avg QP:14.55  size: 94682
[libx264 @ 0x560850854b80] frame P:847   Avg QP:18.22  size: 31555
[libx264 @ 0x560850854b80] frame B:1771  Avg QP:21.37  size:  8861
[libx264 @ 0x560850854b80] consecutive B-frames:  8.9%  4.6%  9.1% 77.4%
[libx264 @ 0x560850854b80] mb I  I16..4: 16.4% 18.1% 65.5%
[libx264 @ 0x560850854b80] mb P  I16..4:  7.6% 14.3%  5.1%  P16..4: 25.0% 17.3% 13.6%  0.0%  0.0%    skip:17.1%
[libx264 @ 0x560850854b80] mb B  I16..4:  1.9%  2.8%  0.3%  B16..8: 24.7% 12.5%  1.8%  direct:11.7%  skip:44.3%  L0:39.1% L1:40.7% BI:20.2%
[libx264 @ 0x560850854b80] 8x8 transform intra:49.0% inter:31.6%
[libx264 @ 0x560850854b80] coded y,uvDC,uvAC intra: 53.8% 45.8% 17.4% inter: 18.7% 14.7% 0.7%
[libx264 @ 0x560850854b80] i16 v,h,dc,p: 49% 35%  7%  9%
[libx264 @ 0x560850854b80] i8 v,h,dc,ddl,ddr,vr,hd,vl,hu: 26% 31% 14%  3%  6%  5%  7%  4%  5%
[libx264 @ 0x560850854b80] i4 v,h,dc,ddl,ddr,vr,hd,vl,hu: 22% 26%  9%  6%  8%  7%  9%  6%  7%
[libx264 @ 0x560850854b80] i8c dc,h,v,p: 54% 23% 18%  6%
[libx264 @ 0x560850854b80] Weighted P-Frames: Y:6.1% UV:0.6%
[libx264 @ 0x560850854b80] kb/s:3521.92
[aac @ 0x56085083d580] Qavg: 1501.965
[AVIOContext @ 0x5608507edb00] Statistics: 127109350 bytes read, 3711 seeks
[AVIOContext @ 0x560850a6ce00] Statistics: 1530915 bytes read, 42 seeks
